PathFileType	4	(X/Y/Z)	 s03c0201.trc
DataRate	CameraRate	NumFrames	NumMarkers	Units	OrigDataRate	OrigDataStartFrame	OrigNumFrames
200	200	4	52	mm	200	251	2000
Frame#	Time	racr			lacr			c7			jug			rlel			rdr			llel			ldr			s2			lic			ric			lasi			rasi			rpsi			lpsi			rgt			lgt			rth1			rth2			rth3			rth4			rlfc			rmfc			rsh1			rsh2			rsh3			rsh4			rlmal			rmmal			rcal			rtoe			rmt5			rmt1			lth1			lth2			lth4			lth3			llfc			lmfc			lsh1			lsh2			lsh3			lsh4			llmal			lmmal			lcal			ltoe			lmt1			lmt5			SBIKE			LBIKE			RBIKE			
		X1	Y1	Z1	X2	Y2	Z2	X3	Y3	Z3	X4	Y4	Z4	X5	Y5	Z5	X6	Y6	Z6	X7	Y7	Z7	X8	Y8	Z8	X9	Y9	Z9	X10	Y10	Z10	X11	Y11	Z11	X12	Y12	Z12	X13	Y13	Z13	X14	Y14	Z14	X15	Y15	Z15	X16	Y16	Z16	X17	Y17	Z17	X18	Y18	Z18	X19	Y19	Z19	X20	Y20	Z20	X21	Y21	Z21	X22	Y22	Z22	X23	Y23	Z23	X24	Y24	Z24	X25	Y25	Z25	X26	Y26	Z26	X27	Y27	Z27	X28	Y28	Z28	X29	Y29	Z29	X30	Y30	Z30	X31	Y31	Z31	X32	Y32	Z32	X33	Y33	Z33	X34	Y34	Z34	X35	Y35	Z35	X36	Y36	Z36	X37	Y37	Z37	X38	Y38	Z38	X39	Y39	Z39	X40	Y40	Z40	X41	Y41	Z41	X42	Y42	Z42	X43	Y43	Z43	X44	Y44	Z44	X45	Y45	Z45	X46	Y46	Z46	X47	Y47	Z47	X48	Y48	Z48	X49	Y49	Z49	X50	Y50	Z50	X51	Y51	Z51	X52	Y52	Z52	
251	1.2550	489.830200	1453.309355	-62.678202	488.529388	1473.733169	-375.954709	403.844692	1528.789917	-218.724622	461.185978	1366.435148	-219.037920	517.367547	1178.176071	32.580884	736.667017	989.205067	-16.196674	537.092002	1205.642381	-467.634826	742.942455	982.927089	-432.725259	-87.967128	1204.847976	-248.538078	110.163493	1214.913654	-421.746432	78.166475	1236.812625	-55.589963	118.470751	1136.116830	-379.328147	98.016510	1173.238094	-97.985751	-62.893135	1257.184698	-203.382274	-51.135066	1252.094506	-285.696645	16.279768	1160.046400	-37.405682	39.070225	1099.758663	-435.604570	140.181331	1077.726479	-12.353807	228.747028	1076.451415	-5.945824	304.332091	1034.359935	-3.074809	239.309182	1109.744397	-19.469315	426.634659	974.012116	-17.557905	441.541795	961.584473	-144.917994	356.512103	824.611037	-6.474063	333.510638	741.073594	-27.072505	269.970584	679.708230	-34.518036	360.159798	730.723889	-53.130970	198.808773	568.062061	-63.455749	225.358970	584.950536	-150.531435	130.083633	526.638325	-107.587938	439.085046	507.282812	-109.617433	319.840880	494.579992	-40.302704	345.739648	510.940812	-154.847527	105.339403	955.022860	-457.516981	161.870306	888.816155	-457.786665	194.454376	905.058313	-452.437557	178.331584	801.775983	-446.996042	247.986893	691.904129	-428.524244	251.600721	682.539700	-306.281314	164.324889	539.383123	-450.089151	154.233191	456.664318	-431.045130	99.618733	384.069550	-423.449159	183.371827	448.906114	-406.884696	43.680167	269.494957	-400.570210	79.016394	281.349964	-311.184458	-25.813758	226.576407	-350.375130	281.947968	196.302678	-355.263374	190.068274	200.534475	-311.483549	160.002321	180.950650	-424.979612	-261.839650	929.751860	-243.502198	-4.507028	83.962393	-432.950808	-8.872541	80.976835	-32.541762	
252	1.2600	490.113961	1453.338462	-62.825470	489.003202	1473.740100	-375.433336	403.907244	1528.716547	-218.700726	461.396003	1366.533851	-219.031408	517.369592	1178.213213	32.797096	736.583986	989.245202	-16.241019	536.917894	1205.583568	-467.999643	742.795091	982.955025	-432.456110	-88.072112	1204.758975	-248.614559	110.007693	1214.978360	-421.759031	77.812961	1236.761044	-55.840491	118.281815	1136.583830	-379.066837	98.195724	1173.469130	-98.279130	-63.080908	1257.149056	-203.405925	-51.156075	1251.996863	-285.772429	16.361543	1160.095071	-37.541192	38.976022	1099.661616	-435.621288	140.196396	1077.789508	-12.430135	228.780235	1076.534398	-6.035275	304.331217	1034.448782	-3.180393	239.310511	1109.825077	-19.573310	426.680037	974.105384	-17.722495	441.496730	961.629798	-145.074865	356.520544	824.690344	-6.549293	333.520060	741.166291	-27.129751	269.943606	679.794848	-34.544032	360.163203	730.803194	-53.187585	198.791364	568.155509	-63.426358	225.324923	585.026398	-150.515050	130.014192	526.742850	-107.535505	439.016039	507.283068	-109.620269	319.778455	494.628462	-40.290432	345.668929	510.986035	-154.844548	105.280722	954.909195	-457.540873	161.834791	888.720518	-457.776316	194.420208	904.990917	-452.432525	178.349233	801.705607	-447.003522	248.040626	691.857325	-428.528432	251.503278	682.598221	-306.456285	164.404477	539.347871	-450.031576	154.321765	456.647008	-431.004219	99.719602	384.046946	-423.399516	183.440009	448.921747	-406.832157	43.657004	269.563573	-400.772914	79.106080	281.302873	-311.123570	-25.561588	226.484007	-350.119038	282.050859	196.260225	-355.256259	190.138112	200.502462	-311.458525	160.074469	180.933744	-424.955965	-261.794140	929.758205	-243.528915	-4.505271	83.973816	-432.934740	-8.865143	80.963161	-32.542249	
253	1.2650	490.385428	1453.374353	-62.956393	489.498890	1473.709831	-374.926759	403.983377	1528.633506	-218.594476	461.585390	1366.617716	-219.002637	517.380982	1178.221499	33.047975	736.438299	989.344056	-16.363305	536.743185	1205.501262	-468.450214	742.639254	982.969132	-432.173370	-88.169097	1204.693008	-248.624955	109.846690	1215.027942	-421.741027	77.450247	1236.605351	-56.060969	118.078328	1137.083420	-378.797442	98.460765	1173.655593	-98.670748	-63.194956	1257.118318	-203.501221	-51.206994	1251.912434	-285.877870	16.468995	1160.129876	-37.721301	38.874797	1099.548961	-435.667709	140.182562	1077.906308	-12.512931	228.783447	1076.642304	-6.119342	304.352390	1034.558887	-3.303805	239.319139	1109.909233	-19.701044	426.932176	974.061991	-18.296887	441.440767	961.658011	-145.242293	356.555688	824.769058	-6.641707	333.494433	741.258308	-27.210122	269.931605	679.881759	-34.579860	360.156100	730.880096	-53.271876	198.755099	568.228854	-63.419321	225.274506	585.099214	-150.509379	129.976023	526.839673	-107.535370	438.961284	507.296513	-109.627282	319.731848	494.673992	-40.268966	345.613366	511.018606	-154.838039	105.204618	954.762096	-457.566319	161.796767	888.622226	-457.798952	194.390132	904.919910	-452.451417	178.352347	801.623801	-446.995997	248.119847	691.824125	-428.491086	251.543805	682.583815	-306.421256	164.489659	539.342906	-450.001940	154.406668	456.661302	-430.945102	99.815003	384.059777	-423.316253	183.507128	448.921995	-406.752523	43.920288	269.454208	-400.459902	79.192616	281.288555	-311.041270	-25.603825	226.537234	-350.254436	282.129251	196.198521	-355.269766	190.204286	200.474155	-311.433300	160.154798	180.901053	-424.941726	-261.805231	929.754751	-243.476165	-4.523183	83.957963	-432.944225	-8.870349	80.961982	-32.542008	
254	1.2700	490.725811	1453.450195	-63.075886	489.871504	1473.631950	-374.409991	404.068318	1528.509753	-218.499676	461.825078	1366.679664	-218.941457	517.453346	1178.239913	33.320904	736.561335	989.316720	-16.063957	536.589148	1205.475470	-468.895245	742.517311	982.982776	-431.918365	-88.255343	1204.637729	-248.728977	109.654694	1215.104668	-421.721413	77.226267	1236.486200	-56.216121	117.834870	1137.528498	-378.363744	98.657975	1173.890088	-99.093339	-63.334449	1257.028651	-203.620704	-50.941768	1251.678209	-286.070685	16.581599	1160.247975	-37.923046	38.790705	1099.434324	-435.727255	140.207748	1078.030086	-12.627197	228.807263	1076.757638	-6.236575	304.373788	1034.678300	-3.473144	239.332956	1110.010851	-19.855159	426.932245	974.203019	-18.464210	441.395656	961.696285	-145.402871	356.581775	824.842409	-6.770336	333.505727	741.313402	-27.293669	269.954183	679.977245	-34.614330	360.172993	730.944635	-53.387218	198.754850	568.328247	-63.424649	225.245287	585.157677	-150.513499	129.946350	526.949399	-107.518301	438.922141	507.284214	-109.643280	319.701482	494.715308	-40.258481	345.556988	511.039900	-154.841263	105.116035	954.625326	-457.591822	161.747970	888.509722	-457.813845	194.322035	904.795670	-452.484604	178.364778	801.538593	-447.007091	248.190320	691.798955	-428.500741	251.579266	682.572301	-306.394323	164.587375	539.350003	-449.968802	154.481371	456.698387	-430.878028	99.919428	384.063762	-423.239301	183.589787	448.948346	-406.680443	44.012140	269.463782	-400.388920	79.360448	281.236678	-311.002034	-25.524597	226.594757	-350.156847	282.209686	196.133673	-355.242993	190.266079	200.450647	-311.408359	160.216067	180.889930	-424.916491	-261.781173	929.732309	-243.445953	-4.524332	83.970557	-432.941675	-8.867511	80.973591	-32.538482	
